<svg width="720" height="810" viewBox="0 0 720 810" fill="none" xmlns="http://www.w3.org/2000/svg">
    <rect x="87.5" y="342.5" width="85" height="85" rx="12.5" transform="rotate(-180 87.5 342.5)" stroke="#36007A" stroke-width="5"/>
    <rect x="812.5" y="617.5" width="145" height="145" rx="12.5" transform="rotate(-180 812.5 617.5)" stroke="#36007A" stroke-width="5"/>
    <rect x="362.5" y="467.5" width="145" height="145" rx="12.5" transform="rotate(-180 362.5 467.5)" stroke="#36007A" stroke-width="5"/>
    <rect x="702.5" y="507.5" width="115" height="115" rx="12.5" transform="rotate(-180 702.5 507.5)" stroke="#36007A" stroke-width="5"/>
    <rect x="232" y="338" width="75" height="75" rx="15" transform="rotate(-180 232 338)" fill="white"/>
    <rect x="552.5" y="657.5" width="115" height="115" rx="12.5" transform="rotate(-180 552.5 657.5)" stroke="white" stroke-width="5"/>
    <rect x="402.5" y="807.5" width="85" height="85" rx="12.5" transform="rotate(-180 402.5 807.5)" stroke="#36007A" stroke-width="5"/>
    <rect x="390" y="795" width="90" height="90" rx="15" transform="rotate(-180 390 795)" fill="#36007A"/>
    <rect x="342.5" y="147.5" width="145" height="145" rx="12.5" transform="rotate(-180 342.5 147.5)" stroke="white" stroke-width="5"/>
    <rect x="192.5" y="297.5" width="145" height="145" rx="12.5" transform="rotate(-180 192.5 297.5)" stroke="white" stroke-width="5"/>
    <rect x="795" y="300" width="150" height="150" rx="15" transform="rotate(-180 795 300)" fill="#36007A"/>
    <rect x="642.5" y="447.5" width="145" height="145" rx="12.5" transform="rotate(-180 642.5 447.5)" stroke="white" stroke-width="5"/>
    <rect x="345" y="450" width="150" height="150" rx="15" transform="rotate(-180 345 450)" fill="#36007A"/>
    <rect x="795" y="600" width="150" height="150" rx="15" transform="rotate(-180 795 600)" fill="#36007A"/>
    <rect x="495" y="750" width="150" height="150" rx="15" transform="rotate(-180 495 750)" fill="white"/>
    <rect x="379.5" y="185.5" width="70" height="70" rx="12.5" transform="rotate(-180 379.5 185.5)" stroke="#36007A" stroke-width="5"/>
    <rect x="492.5" y="297.5" width="145" height="145" rx="12.5" transform="rotate(-180 492.5 297.5)" stroke="white" stroke-width="5"/>
    <rect x="552.5" y="207.5" width="115" height="115" rx="12.5" transform="rotate(-180 552.5 207.5)" stroke="#36007A" stroke-width="5"/>
    <rect x="270" y="225" width="150" height="150" rx="15" transform="rotate(-180 270 225)" fill="white"/>
</svg>

