<svg class="svg-left-bottom" width="660" height="325" viewBox="0 0 660 325" fill="none" xmlns="http://www.w3.org/2000/svg">
    <rect x="57.5" y="262.5" width="115" height="115" rx="12.5" transform="rotate(-180 57.5 262.5)" stroke="white" stroke-width="5"/>
    <rect x="180" y="385" width="120" height="120" rx="15" transform="rotate(-180 180 385)" fill="white"/>
    <rect x="91.5" y="57.5" width="55" height="55" rx="12.5" transform="rotate(-180 91.5 57.5)" stroke="white" stroke-width="5"/>
    <rect x="197.5" y="162.5" width="115" height="115" rx="12.5" transform="rotate(-180 197.5 162.5)" stroke="#36007A" stroke-width="5"/>
    <rect x="180" y="145" width="120" height="120" rx="15" transform="rotate(-180 180 145)" fill="#36007A"/>
    <rect x="417.5" y="382.5" width="115" height="115" rx="12.5" transform="rotate(-180 417.5 382.5)" stroke="white" stroke-width="5"/>
    <rect x="660" y="385" width="120" height="120" rx="15" transform="rotate(-180 660 385)" fill="white"/>
    <rect x="342.5" y="307.5" width="85" height="85" rx="12.5" transform="rotate(-180 342.5 307.5)" stroke="#36007A" stroke-width="5"/>
    <rect x="297.5" y="262.5" width="115" height="115" rx="12.5" transform="rotate(-180 297.5 262.5)" stroke="white" stroke-width="5"/>
    <rect x="352" y="198" width="105" height="105" rx="15" transform="rotate(-180 352 198)" fill="white"/>
    <rect x="447.5" y="292.5" width="55" height="55" rx="12.5" transform="rotate(-180 447.5 292.5)" stroke="#36007A" stroke-width="5"/>
    <rect x="537.5" y="262.5" width="115" height="115" rx="12.5" transform="rotate(-180 537.5 262.5)" stroke="white" stroke-width="5"/>
    <rect x="577" y="183" width="75" height="75" rx="15" transform="rotate(-180 577 183)" fill="#36007A"/>
    <rect x="589.5" y="195.5" width="70" height="70" rx="12.5" transform="rotate(-180 589.5 195.5)" stroke="#36007A" stroke-width="5"/>
</svg>