<svg width="1020" height="735" viewBox="0 0 1020 735" fill="none" xmlns="http://www.w3.org/2000/svg">
    <rect x="87.5" y="267.5" width="85" height="85" rx="12.5" transform="rotate(-180 87.5 267.5)" stroke="#36007A" stroke-width="5"/>
    <rect x="812.5" y="542.5" width="145" height="145" rx="12.5" transform="rotate(-180 812.5 542.5)" stroke="#36007A" stroke-width="5"/>
    <rect x="362.5" y="392.5" width="145" height="145" rx="12.5" transform="rotate(-180 362.5 392.5)" stroke="#36007A" stroke-width="5"/>
    <rect x="837.5" y="117.5" width="85" height="85" rx="12.5" transform="rotate(-180 837.5 117.5)" stroke="white" stroke-width="5"/>
    <rect x="702.5" y="432.5" width="115" height="115" rx="12.5" transform="rotate(-180 702.5 432.5)" stroke="#36007A" stroke-width="5"/>
    <rect x="232" y="263" width="75" height="75" rx="15" transform="rotate(-180 232 263)" fill="white"/>
    <rect x="552.5" y="582.5" width="115" height="115" rx="12.5" transform="rotate(-180 552.5 582.5)" stroke="white" stroke-width="5"/>
    <rect x="402.5" y="732.5" width="85" height="85" rx="12.5" transform="rotate(-180 402.5 732.5)" stroke="#36007A" stroke-width="5"/>
    <rect x="390" y="720" width="90" height="90" rx="15" transform="rotate(-180 390 720)" fill="#36007A"/>
    <rect x="829.5" y="260.5" width="70" height="70" rx="12.5" transform="rotate(-180 829.5 260.5)" stroke="#36007A" stroke-width="5"/>
    <rect x="342.5" y="72.5" width="145" height="145" rx="12.5" transform="rotate(-180 342.5 72.5)" stroke="white" stroke-width="5"/>
    <rect x="192.5" y="222.5" width="145" height="145" rx="12.5" transform="rotate(-180 192.5 222.5)" stroke="white" stroke-width="5"/>
    <rect x="795" y="225" width="150" height="150" rx="15" transform="rotate(-180 795 225)" fill="#36007A"/>
    <rect x="942.5" y="372.5" width="145" height="145" rx="12.5" transform="rotate(-180 942.5 372.5)" stroke="white" stroke-width="5"/>
    <rect x="642.5" y="372.5" width="145" height="145" rx="12.5" transform="rotate(-180 642.5 372.5)" stroke="white" stroke-width="5"/>
    <rect x="345" y="375" width="150" height="150" rx="15" transform="rotate(-180 345 375)" fill="#36007A"/>
    <rect x="1095" y="525" width="150" height="150" rx="15" transform="rotate(-180 1095 525)" fill="white"/>
    <rect x="795" y="525" width="150" height="150" rx="15" transform="rotate(-180 795 525)" fill="#36007A"/>
    <rect x="942.5" y="672.5" width="145" height="145" rx="12.5" transform="rotate(-180 942.5 672.5)" stroke="white" stroke-width="5"/>
    <rect x="495" y="675" width="150" height="150" rx="15" transform="rotate(-180 495 675)" fill="white"/>
    <rect x="379.5" y="110.5" width="70" height="70" rx="12.5" transform="rotate(-180 379.5 110.5)" stroke="#36007A" stroke-width="5"/>
    <rect x="492.5" y="222.5" width="145" height="145" rx="12.5" transform="rotate(-180 492.5 222.5)" stroke="white" stroke-width="5"/>
    <rect x="552.5" y="132.5" width="115" height="115" rx="12.5" transform="rotate(-180 552.5 132.5)" stroke="#36007A" stroke-width="5"/>
    <rect x="645" y="75" width="150" height="150" rx="15" transform="rotate(-180 645 75)" fill="white"/>
</svg>